<svg width="33" height="33" viewBox="0 0 33 33" fill="none" xmlns="http://www.w3.org/2000/svg">
<rect x="0.00683594" y="0.00378418" width="32" height="32" rx="4" fill="#257784"/>
<path d="M24.2271 26.5062L26.8496 9.38574C27.1128 7.66801 26.0427 6.05005 24.4903 5.81846L18.2164 4.8826C16.6846 4.65415 15.3228 5.97964 15.3228 7.69909V10.2515C15.3228 16.2434 17.1613 15.8641 19.0684 18.3007C20.3738 19.9685 21.3834 21.8963 22.0437 23.9823L22.8829 26.6335C23.1217 27.3879 24.1063 27.2947 24.2271 26.5062Z" fill="#28B67F"/>
<path d="M14.9874 5.70943C14.9153 5.70943 14.8428 5.71477 14.7702 5.72559L8.49632 6.66144C8.02289 6.73212 7.59105 7.00389 7.28057 7.42676C6.90741 7.93493 6.75109 8.60167 6.85123 9.25591L9.37456 25.7289L10.0094 23.7239C10.7034 21.5316 11.752 19.5297 13.1264 17.7737C13.6571 17.0957 14.1794 16.6207 14.6402 16.2016C15.8749 15.0788 16.6905 14.3372 16.6905 10.2513V7.69892C16.6905 7.06432 16.4383 6.48199 15.9987 6.10123C15.7026 5.84478 15.3501 5.70943 14.9874 5.70943ZM9.32898 28.0038C9.28902 28.0038 9.24875 28.0023 9.20814 27.9991C8.47975 27.9422 7.91229 27.3944 7.79611 26.6357V26.6357L5.17361 9.51523C5.00503 8.41581 5.27507 7.2858 5.91426 6.41515C6.49482 5.62436 7.32317 5.11302 8.24699 4.97519L14.5209 4.03934C15.454 3.89979 16.3729 4.17398 17.1074 4.81026C17.9212 5.51514 18.388 6.56803 18.388 7.69892V10.2513C18.388 14.7674 17.4026 15.9894 15.7797 17.4653C15.3486 17.8572 14.903 18.2626 14.4609 18.8272C13.2126 20.4221 12.2593 22.2433 11.627 24.2404L10.7879 26.8915C10.5736 27.5693 9.99622 28.0038 9.32898 28.0038Z" fill="white"/>
</svg>
