<svg width="1435" height="803" viewBox="0 0 1435 803" fill="none" xmlns="http://www.w3.org/2000/svg">
<path fill-rule="evenodd" clip-rule="evenodd" d="M67.1559 0V48.6977C67.1506 94.6539 39.2011 132.046 4.86514 132.046H0V314.196C9.61935 343.788 27.5374 367.6 51.2821 380.764C59.3042 385.209 67.496 388.164 75.6923 389.673V435.877C75.6923 513.248 45.4714 581.377 0 620.204V677.649C66.9551 634.017 113.198 542.041 113.198 435.877V386.454C128.892 380.71 143.572 369.417 155.901 352.938L278.517 188.926L137.28 0H67.1559ZM104.682 27.3811V48.6977C104.682 110.933 72.7002 163.366 29.5606 178.107V262.114C29.5606 300.651 48.2024 324.71 65.6556 334.391C83.0877 344.049 109.019 344.7 129.378 317.433L225.45 188.926L104.682 27.3811Z" fill="#C3E4EE" fill-opacity="0.15"/>
<path d="M1195.33 0V98.8934C1195.33 172.498 1240.13 232.409 1295.15 232.409H1435V182.242H1295.15C1260.79 182.242 1232.84 144.85 1232.84 98.8934V0H1195.33Z" fill="#C3E4EE" fill-opacity="0.15"/>
<path d="M633.741 918C650.423 875.344 683.835 846.133 722.265 846.133H863.771C902.201 846.133 935.613 875.344 952.295 918H905.635C894.563 904.547 879.856 896.336 863.771 896.336H722.265C706.153 896.336 691.473 904.547 680.401 918H633.741Z" fill="#C3E4EE" fill-opacity="0.15"/>
<path d="M822.811 0L822.304 0.67832C798.026 33.1811 758.497 33.1811 734.219 0.67832L733.691 0H680.602L707.674 36.1841C746.585 88.2381 809.911 88.2381 848.848 36.1841L875.9 0H822.811Z" fill="#C3E4EE" fill-opacity="0.15"/>
<path d="M1246.6 312.237C1259.99 304.774 1274.67 300.651 1290.07 300.651H1435V350.854H1290.07C1248.29 350.854 1214.28 396.308 1214.28 452.185V515.954H1435V566.15H1176.78V452.185C1176.78 407.637 1191.21 367.529 1214.15 339.783L1082.81 164.139C1050.92 195.081 1010.16 201.765 972.542 180.921C929.01 156.805 901.979 102.667 901.979 39.6605V0H939.485V39.6605C939.485 90.266 963.985 121.857 986.895 134.548C1009.81 147.238 1043.83 148.065 1070.58 112.29L1083.85 94.5408L1246.6 312.237Z" fill="#C3E4EE" fill-opacity="0.15"/>
<path d="M343.734 918H396.781L457.503 836.806L491.205 881.879C499.128 892.478 504.913 904.815 508.589 918H547.727C543.036 891.743 533.042 866.865 517.749 846.402L457.503 765.823L343.734 918Z" fill="#C3E4EE" fill-opacity="0.15"/>
<path d="M616.663 103.726V0H654.19V103.726C654.19 187.28 603.367 255.253 540.902 255.253H455.701V254.398L268.042 3.3916V0H318.574L455.701 183.451V0H493.228V205.086H540.902C582.676 205.086 616.663 159.603 616.663 103.726Z" fill="#C3E4EE" fill-opacity="0.15"/>
<path d="M0 804.127C33.2372 829.295 59.2744 869.599 72.8345 918H112.384C103.887 879.766 89.1904 845.077 69.8603 816.019H95.3907C153.477 816.019 204.563 856.767 233.527 918H276.383C243.875 828.031 174.96 765.823 95.3907 765.823H25.2384C17.1848 759.151 8.75419 753.218 0 748.095V804.127Z" fill="#C3E4EE" fill-opacity="0.15"/>
<path d="M1214.39 815.962V866.158H1285.05C1325.24 866.158 1362.1 885.674 1390.59 918H1435V906.08C1398.18 850.818 1344.61 815.962 1285.05 815.962H1252.03V764.233C1252.03 711.324 1229.32 665.87 1192.78 645.612C1180.52 638.843 1167.86 635.515 1155.43 635.515C1130.71 635.515 1106.76 648.587 1088.16 673.466L965.543 837.478L1025.74 918H1078.81L1018.61 837.478L1114.69 708.943C1135.07 681.712 1160.95 682.326 1178.4 691.985C1195.86 701.673 1214.51 725.725 1214.51 764.233V815.962H1214.39Z" fill="#C3E4EE" fill-opacity="0.15"/>
</svg>
