<svg width="33" height="32" viewBox="0 0 33 32" fill="none" xmlns="http://www.w3.org/2000/svg">
<path d="M26.1 25.6C24.324 25.6 22.9 27.024 22.9 28.8C22.9 29.6487 23.2371 30.4626 23.8373 31.0627C24.4374 31.6629 25.2513 32 26.1 32C26.9487 32 27.7626 31.6629 28.3627 31.0627C28.9629 30.4626 29.3 29.6487 29.3 28.8C29.3 27.9513 28.9629 27.1374 28.3627 26.5373C27.7626 25.9371 26.9487 25.6 26.1 25.6ZM0.5 0V3.2H3.7L9.46 15.344L7.284 19.264C7.044 19.712 6.9 20.24 6.9 20.8C6.9 21.6487 7.23714 22.4626 7.83726 23.0627C8.43737 23.6629 9.25131 24 10.1 24H29.3V20.8H10.772C10.6659 20.8 10.5642 20.7579 10.4892 20.6828C10.4141 20.6078 10.372 20.5061 10.372 20.4C10.372 20.32 10.388 20.256 10.42 20.208L11.86 17.6H23.78C24.98 17.6 26.036 16.928 26.58 15.952L32.308 5.6C32.42 5.344 32.5 5.072 32.5 4.8C32.5 4.37565 32.3314 3.96869 32.0314 3.66863C31.7313 3.36857 31.3243 3.2 30.9 3.2H7.236L5.732 0M10.1 25.6C8.324 25.6 6.9 27.024 6.9 28.8C6.9 29.6487 7.23714 30.4626 7.83726 31.0627C8.43737 31.6629 9.25131 32 10.1 32C10.9487 32 11.7626 31.6629 12.3627 31.0627C12.9629 30.4626 13.3 29.6487 13.3 28.8C13.3 27.9513 12.9629 27.1374 12.3627 26.5373C11.7626 25.9371 10.9487 25.6 10.1 25.6Z" fill="#EDF7FA"/>
</svg>
