<svg width="56" height="56" viewBox="0 0 56 56" fill="none" xmlns="http://www.w3.org/2000/svg">
<path d="M23.7473 5.26088C25.936 2.55332 30.064 2.55332 32.2527 5.26088C33.6125 6.94314 35.8363 7.66567 37.9252 7.104C41.2874 6.20001 44.627 8.62639 44.8062 12.1033C44.9176 14.2636 46.2919 16.1552 48.312 16.9287C51.5634 18.1736 52.839 22.0995 50.9403 25.0178C49.7606 26.8309 49.7606 29.1691 50.9403 30.9822C52.839 33.9005 51.5634 37.8264 48.312 39.0713C46.2919 39.8448 44.9176 41.7364 44.8062 43.8967C44.627 47.3736 41.2874 49.8 37.9252 48.896C35.8363 48.3343 33.6125 49.0569 32.2527 50.7391C30.064 53.4467 25.936 53.4467 23.7473 50.7391C22.3874 49.0569 20.1637 48.3343 18.0748 48.896C14.7126 49.8 11.373 47.3736 11.1938 43.8967C11.0824 41.7364 9.70811 39.8448 7.68796 39.0713C4.43658 37.8264 3.16096 33.9005 5.05966 30.9822C6.23936 29.1691 6.23936 26.8309 5.05966 25.0178C3.16096 22.0995 4.43657 18.1736 7.68796 16.9287C9.70811 16.1552 11.0824 14.2636 11.1938 12.1033C11.373 8.62639 14.7126 6.20001 18.0748 7.104C20.1637 7.66567 22.3874 6.94314 23.7473 5.26088Z" fill="#4CAA7C"/>
<path d="M37.4251 21.5738C36.6583 20.8087 35.3957 20.8087 34.6289 21.5738L25.3169 30.8673L21.3711 26.9294C20.6043 26.1643 19.3417 26.1643 18.5749 26.9294C17.8084 27.6945 17.8084 28.9321 18.5749 29.7197L23.9413 35.0528C24.3247 35.4354 24.8207 35.6154 25.3169 35.6154C25.8355 35.6154 26.3315 35.4354 26.7149 35.0528L37.4251 24.3641C38.1916 23.599 38.1916 22.3614 37.4251 21.5738Z" fill="#EDF7FA"/>
</svg>
