<svg width="1301" height="622" viewBox="0 0 1301 622" fill="none" xmlns="http://www.w3.org/2000/svg">
<path fill-rule="evenodd" clip-rule="evenodd" d="M60.8849 0V32.9956C60.8801 64.1337 35.5405 89.4693 4.41083 89.4693H0V212.887C8.7211 232.937 24.966 249.071 46.4934 257.99C53.7664 261.002 61.1932 263.004 68.6242 264.027V295.333C68.6242 347.756 41.2253 393.918 0 420.225V459.148C60.7029 429.585 102.627 367.265 102.627 295.333V261.845C116.856 257.954 130.165 250.302 141.343 239.137L252.51 128.009L124.461 0H60.8849ZM94.9072 18.5523V32.9956C94.9072 75.164 65.9115 110.69 26.8003 120.678V177.598C26.8003 203.709 43.7013 220.011 59.5247 226.57C75.329 233.114 98.8391 233.555 117.297 215.08L204.397 128.009L94.9072 18.5523Z" fill="#1E383E" fill-opacity="0.1"/>
<path d="M1083.71 0V67.0062C1083.71 116.878 1124.32 157.471 1174.21 157.471H1301V123.48H1174.21C1143.06 123.48 1117.71 98.1442 1117.71 67.0062V0H1083.71Z" fill="#1E383E" fill-opacity="0.1"/>
<path d="M574.563 622C589.687 593.098 619.979 573.306 654.82 573.306H783.112C817.954 573.306 848.245 593.098 863.369 622H821.067C811.029 612.885 797.695 607.321 783.112 607.321H654.82C640.213 607.321 626.904 612.885 616.866 622H574.563Z" fill="#1E383E" fill-opacity="0.1"/>
<path d="M745.977 0L745.517 0.459602C723.506 22.4822 687.669 22.4822 665.658 0.459602L665.179 0H617.047L641.592 24.5169C676.869 59.7866 734.282 59.7866 769.583 24.5169L794.108 0H745.977Z" fill="#1E383E" fill-opacity="0.1"/>
<path d="M1130.2 211.559C1142.33 206.502 1155.65 203.709 1169.6 203.709H1301V237.725H1169.6C1131.72 237.725 1100.89 268.523 1100.89 306.382V349.59H1301V383.6H1066.89V306.382C1066.89 276.198 1079.97 249.023 1100.77 230.223L981.701 111.214C952.788 132.179 915.83 136.708 881.726 122.585C842.259 106.245 817.753 69.5627 817.753 26.8724V0H851.756V26.8724C851.756 61.1606 873.968 82.5656 894.739 91.164C915.514 99.7624 946.361 100.323 970.609 76.0833L982.639 64.0571L1130.2 211.559Z" fill="#1E383E" fill-opacity="0.1"/>
<path d="M311.637 622H359.73L414.781 566.987L445.336 597.526C452.52 604.707 457.764 613.066 461.097 622H496.58C492.328 604.21 483.266 587.353 469.402 573.488L414.781 518.891L311.637 622Z" fill="#1E383E" fill-opacity="0.1"/>
<path d="M559.079 70.2809V0H593.102V70.2809C593.102 126.893 547.025 172.949 490.393 172.949H413.148V172.37L243.013 2.29801V0H288.826L413.148 124.299V0H447.17V138.958H490.393C528.266 138.958 559.079 108.141 559.079 70.2809Z" fill="#1E383E" fill-opacity="0.1"/>
<path d="M0 544.844C30.1335 561.897 53.7394 589.205 66.0332 622H101.89C94.1858 596.094 80.8618 572.59 63.3368 552.902H86.4831C139.145 552.902 185.461 580.511 211.72 622H250.575C221.102 561.04 158.623 518.891 86.4831 518.891H22.8816C15.5801 514.37 7.93672 510.35 0 506.879V544.844Z" fill="#1E383E" fill-opacity="0.1"/>
<path d="M1100.99 552.863V586.874H1165.05C1201.49 586.874 1234.91 600.097 1260.73 622H1301V613.923C1267.61 576.48 1219.05 552.863 1165.05 552.863H1135.12V517.814C1135.12 481.965 1114.52 451.167 1081.4 437.441C1070.28 432.855 1058.81 430.6 1047.53 430.6C1025.12 430.6 1003.41 439.457 986.552 456.313L875.381 567.441L929.958 622H978.07L923.493 567.441L1010.6 480.352C1029.08 461.9 1052.54 462.317 1068.37 468.861C1084.19 475.425 1101.09 491.722 1101.09 517.814V552.863H1100.99Z" fill="#1E383E" fill-opacity="0.1"/>
</svg>
