<svg width="34" height="34" viewBox="0 0 34 34" fill="none" xmlns="http://www.w3.org/2000/svg">
<path d="M9.99992 0.333496H23.9999C29.3333 0.333496 33.6666 4.66683 33.6666 10.0002V24.0002C33.6666 26.5639 32.6481 29.0227 30.8353 30.8355C29.0224 32.6484 26.5637 33.6668 23.9999 33.6668H9.99992C4.66659 33.6668 0.333252 29.3335 0.333252 24.0002V10.0002C0.333252 7.4364 1.3517 4.97765 3.16455 3.1648C4.9774 1.35195 7.43616 0.333496 9.99992 0.333496ZM9.66658 3.66683C8.07529 3.66683 6.54916 4.29897 5.42394 5.42419C4.29873 6.54941 3.66659 8.07553 3.66659 9.66683V24.3335C3.66659 27.6502 6.34992 30.3335 9.66658 30.3335H24.3333C25.9245 30.3335 27.4507 29.7014 28.5759 28.5761C29.7011 27.4509 30.3333 25.9248 30.3333 24.3335V9.66683C30.3333 6.35016 27.6499 3.66683 24.3333 3.66683H9.66658ZM25.7499 6.16683C26.3025 6.16683 26.8324 6.38632 27.2231 6.77702C27.6138 7.16772 27.8333 7.69763 27.8333 8.25016C27.8333 8.8027 27.6138 9.3326 27.2231 9.7233C26.8324 10.114 26.3025 10.3335 25.7499 10.3335C25.1974 10.3335 24.6675 10.114 24.2768 9.7233C23.8861 9.3326 23.6666 8.8027 23.6666 8.25016C23.6666 7.69763 23.8861 7.16772 24.2768 6.77702C24.6675 6.38632 25.1974 6.16683 25.7499 6.16683ZM16.9999 8.66683C19.2101 8.66683 21.3297 9.5448 22.8925 11.1076C24.4553 12.6704 25.3333 14.79 25.3333 17.0002C25.3333 19.2103 24.4553 21.3299 22.8925 22.8927C21.3297 24.4555 19.2101 25.3335 16.9999 25.3335C14.7898 25.3335 12.6702 24.4555 11.1074 22.8927C9.54456 21.3299 8.66659 19.2103 8.66659 17.0002C8.66659 14.79 9.54456 12.6704 11.1074 11.1076C12.6702 9.5448 14.7898 8.66683 16.9999 8.66683ZM16.9999 12.0002C15.6738 12.0002 14.4021 12.5269 13.4644 13.4646C12.5267 14.4023 11.9999 15.6741 11.9999 17.0002C11.9999 18.3262 12.5267 19.598 13.4644 20.5357C14.4021 21.4734 15.6738 22.0002 16.9999 22.0002C18.326 22.0002 19.5978 21.4734 20.5355 20.5357C21.4731 19.598 21.9999 18.3262 21.9999 17.0002C21.9999 15.6741 21.4731 14.4023 20.5355 13.4646C19.5978 12.5269 18.326 12.0002 16.9999 12.0002Z" fill="#0E0E0E"/>
</svg>
