<svg width="26" height="24" viewBox="0 0 26 24" fill="none" xmlns="http://www.w3.org/2000/svg">
<path d="M13.5443 0.712178C13.2356 -0.237394 11.8924 -0.237394 11.5836 0.712186L9.32425 7.66585C9.18636 8.09052 8.79055 8.37803 8.34416 8.37803H1.03255C0.0340813 8.37803 -0.380856 9.65568 0.426876 10.2425L6.34194 14.5402C6.70328 14.8026 6.85426 15.2678 6.71636 15.6925L4.45698 22.6462C4.14848 23.5957 5.23527 24.3854 6.043 23.7985L11.9581 19.5009C12.3194 19.2384 12.8086 19.2384 13.1699 19.5009L19.085 23.7985C19.8927 24.3854 20.9795 23.5957 20.671 22.6462L18.4116 15.6925C18.2737 15.2678 18.4247 14.8026 18.786 14.5402L24.7011 10.2425C25.5088 9.65568 25.0939 8.37803 24.0954 8.37803H16.7838C16.3374 8.37803 15.9416 8.09052 15.8037 7.66585L13.5443 0.712178Z" fill="#FADF51"/>
</svg>
