<svg width="34" height="34" viewBox="0 0 34 34" fill="none" xmlns="http://www.w3.org/2000/svg">
<path d="M24.2666 20.3335C24.3999 19.2335 24.4999 18.1335 24.4999 17.0002C24.4999 15.8668 24.3999 14.7668 24.2666 13.6668H29.8999C30.1666 14.7335 30.3333 15.8502 30.3333 17.0002C30.3333 18.1502 30.1666 19.2668 29.8999 20.3335M21.3166 29.6002C22.3166 27.7502 23.0833 25.7502 23.6166 23.6668H28.5333C26.9185 26.4473 24.3568 28.5535 21.3166 29.6002ZM20.8999 20.3335H13.0999C12.9333 19.2335 12.8333 18.1335 12.8333 17.0002C12.8333 15.8668 12.9333 14.7502 13.0999 13.6668H20.8999C21.0499 14.7502 21.1666 15.8668 21.1666 17.0002C21.1666 18.1335 21.0499 19.2335 20.8999 20.3335ZM16.9999 30.2668C15.6166 28.2668 14.4999 26.0502 13.8166 23.6668H20.1833C19.4999 26.0502 18.3833 28.2668 16.9999 30.2668ZM10.3333 10.3335H5.46659C7.06468 7.54552 9.62458 5.43597 12.6666 4.40016C11.6666 6.25016 10.9166 8.25016 10.3333 10.3335ZM5.46659 23.6668H10.3333C10.9166 25.7502 11.6666 27.7502 12.6666 29.6002C9.63096 28.5529 7.07466 26.4464 5.46659 23.6668ZM4.09992 20.3335C3.83325 19.2668 3.66659 18.1502 3.66659 17.0002C3.66659 15.8502 3.83325 14.7335 4.09992 13.6668H9.73325C9.59992 14.7668 9.49992 15.8668 9.49992 17.0002C9.49992 18.1335 9.59992 19.2335 9.73325 20.3335M16.9999 3.71683C18.3833 5.71683 19.4999 7.95016 20.1833 10.3335H13.8166C14.4999 7.95016 15.6166 5.71683 16.9999 3.71683ZM28.5333 10.3335H23.6166C23.095 8.26926 22.3225 6.27666 21.3166 4.40016C24.3833 5.45016 26.9333 7.56683 28.5333 10.3335ZM16.9999 0.333496C7.78325 0.333496 0.333252 7.8335 0.333252 17.0002C0.333252 21.4204 2.0892 25.6597 5.21481 28.7853C6.76245 30.3329 8.59977 31.5606 10.6219 32.3982C12.644 33.2357 14.8112 33.6668 16.9999 33.6668C21.4202 33.6668 25.6594 31.9109 28.785 28.7853C31.9106 25.6597 33.6666 21.4204 33.6666 17.0002C33.6666 14.8115 33.2355 12.6442 32.3979 10.6221C31.5603 8.60001 30.3327 6.76269 28.785 5.21505C27.2374 3.66741 25.4001 2.43975 23.378 1.60217C21.3559 0.764592 19.1886 0.333496 16.9999 0.333496Z" fill="white"/>
</svg>
