<svg width="34" height="34" viewBox="0 0 34 34" fill="none" xmlns="http://www.w3.org/2000/svg">
<path d="M24.2666 20.333C24.3999 19.233 24.4999 18.133 24.4999 16.9997C24.4999 15.8663 24.3999 14.7663 24.2666 13.6663H29.8999C30.1666 14.733 30.3333 15.8497 30.3333 16.9997C30.3333 18.1497 30.1666 19.2663 29.8999 20.333M21.3166 29.5997C22.3166 27.7497 23.0833 25.7497 23.6166 23.6663H28.5333C26.9185 26.4468 24.3568 28.553 21.3166 29.5997ZM20.8999 20.333H13.0999C12.9333 19.233 12.8333 18.133 12.8333 16.9997C12.8333 15.8663 12.9333 14.7497 13.0999 13.6663H20.8999C21.0499 14.7497 21.1666 15.8663 21.1666 16.9997C21.1666 18.133 21.0499 19.233 20.8999 20.333ZM16.9999 30.2663C15.6166 28.2663 14.4999 26.0497 13.8166 23.6663H20.1833C19.4999 26.0497 18.3833 28.2663 16.9999 30.2663ZM10.3333 10.333H5.46659C7.06468 7.54503 9.62458 5.43548 12.6666 4.39967C11.6666 6.24967 10.9166 8.24967 10.3333 10.333ZM5.46659 23.6663H10.3333C10.9166 25.7497 11.6666 27.7497 12.6666 29.5997C9.63096 28.5524 7.07466 26.4459 5.46659 23.6663ZM4.09992 20.333C3.83325 19.2663 3.66659 18.1497 3.66659 16.9997C3.66659 15.8497 3.83325 14.733 4.09992 13.6663H9.73325C9.59992 14.7663 9.49992 15.8663 9.49992 16.9997C9.49992 18.133 9.59992 19.233 9.73325 20.333M16.9999 3.71634C18.3833 5.71634 19.4999 7.94967 20.1833 10.333H13.8166C14.4999 7.94967 15.6166 5.71634 16.9999 3.71634ZM28.5333 10.333H23.6166C23.095 8.26877 22.3225 6.27617 21.3166 4.39967C24.3833 5.44967 26.9333 7.56634 28.5333 10.333ZM16.9999 0.333008C7.78325 0.333008 0.333252 7.83301 0.333252 16.9997C0.333252 21.4199 2.0892 25.6592 5.21481 28.7848C6.76245 30.3324 8.59977 31.5601 10.6219 32.3977C12.644 33.2352 14.8112 33.6663 16.9999 33.6663C21.4202 33.6663 25.6594 31.9104 28.785 28.7848C31.9106 25.6592 33.6666 21.4199 33.6666 16.9997C33.6666 14.811 33.2355 12.6437 32.3979 10.6216C31.5603 8.59952 30.3327 6.7622 28.785 5.21456C27.2374 3.66692 25.4001 2.43926 23.378 1.60168C21.3559 0.764104 19.1886 0.333008 16.9999 0.333008Z" fill="#0E0E0E"/>
</svg>
